# xmcd
#
# Track frame offsets: 
#        182
#        15177
#        30037
#
# Disc length: 729 seconds
#
# Revision: 4
# Processed by: cddbd v1.5.2PL0 Copyright (c) Steve Scherf et al.
# Submitted via: ExactAudioCopy v0.95b4
#
DISCID=0a02d703
DTITLE=Aswad - We Are One People
DYEAR=1994
DGENRE=Reggae
TTITLE0=We Are One People (Radio Version)
TTITLE1=We Are One People (Reggae Version)
TTITLE2=We Are One People (Geta-Fix-Mix)
EXTD=YEAR: 1994 ID3G: 16
EXTT0=
EXTT1=
EXTT2=
PLAYORDER=
